{"title":"Heropanti HINDI 2014 Non Retail DVDRIP HQ XviD MP3 GOPI SAHI","uid":10210359,"size":750019582,"categoryP":"video","categoryS":"movies","magnet":"?xt=urn:btih:a7e7b438cd61ddc2f5eb9ccc360bd703fdab77ae&amp;dn=Heropanti+HINDI+2014+Non+Retail+DVDRIP+HQ+XviD+MP3+GOPI+SAHI&amp;tr=udp%3A%2F%2Ftracker.openbittorrent.com%3A80&amp;tr=udp%3A%2F%2Fopen.demonii.com%3A1337&amp;tr=udp%3A%2F%2Ftracker.coppersurfer.tk%3A6969&amp;tr=udp%3A%2F%2Fexodus.desync.com%3A6969","seeders":1,"leechers":0,"uploader":"jatt13","files":1,"time":1400903634,"description":"Video\nID                             : 0\nFormat                         : MPEG-4 Visual\nFormat profile                 : Advanced Simple@L5\nFormat settings, BVOP          : Yes\nFormat settings, QPel          : Yes\nFormat settings, GMC           : No warppoints\nFormat settings, Matrix        : Default (H.263)\nCodec ID                       : XVID\nCodec ID/Hint                  : XviD\nDuration                       : 2h 21mn\nBit rate                       : 602 Kbps\nWidth                          : 608 pixels\nHeight                         : 256 pixels\nDisplay aspect ratio           : 2.40:1\nFrame rate                     : 23.976 fps\nColor space                    : YUV\nChroma subsampling             : 4:2:0\nBit depth                      : 8 bits\nScan type                      : Progressive\nCompression mode               : Lossy\nBits/(Pixel*Frame)             : 0.161\nStream size                    : 608 MiB (85%)\nWriting library                : XviD 1.2.1 (UTC 2008-12-04)\n\nAudio\nID                             : 1\nFormat                         : MPEG Audio\nFormat version                 : Version 1\nFormat profile                 : Layer 3\nMode                           : Joint stereo\nMode extension                 : MS Stereo\nCodec ID                       : 55\nCodec ID/Hint                  : MP3\nDuration                       : 2h 21mn\nBit rate mode                  : Constant\nBit rate                       : 96.0 Kbps\nChannel count                  : 2 channels\nSampling rate                  : 32.0 KHz\nCompression mode               : Lossy\nStream size                    : 96.9 MiB (14%)\nAlignment                      : Aligned on interleaves\nInterleave, duration           : 36 ms (0.86 video frame)\nInterleave, preload duration   : 828 ms\nTitle                          : c\nWriting library                : LAME3.99r\nEncoding settings              : -m j -V 4 -q 2 -lowpass 15.1 -b 96-m j -V 4 -q 2 -lowpass 15.1 -b 96-m j -V 4 -q 2 -lowpass 15.1 -b 96\n[IMG]http://i.imgur.com/x91Sc4E.jpg[/IMG]\n[IMG]http://i.imgur.com/uTrPnzm.jpg[/IMG]\n[IMG]http://i.imgur.com/PaboEcj.jpg[/IMG]\n[IMG]http://i.imgur.com/a5YkrNC.jpg[/IMG]\n[IMG]http://i.imgur.com/nWfP6ZX.jpg[/IMG]\n","torrent":{"xt":"urn:btih:a7e7b438cd61ddc2f5eb9ccc360bd703fdab77ae","amp;dn":"Heropanti+HINDI+2014+Non+Retail+DVDRIP+HQ+XviD+MP3+GOPI+SAHI","amp;tr":["udp%3A%2F%2Ftracker.openbittorrent.com%3A80","udp%3A%2F%2Fopen.demonii.com%3A1337","udp%3A%2F%2Ftracker.coppersurfer.tk%3A6969","udp%3A%2F%2Fexodus.desync.com%3A6969"],"infoHash":"a7e7b438cd61ddc2f5eb9ccc360bd703fdab77ae","infoHashBuffer":{"type":"Buffer","data":[167,231,180,56,205,97,221,194,245,235,156,204,54,11,215,3,253,171,119,174]},"announce":[],"urlList":[]}}